/* XPM */
static char *_cb2d091fa504e1981140eed39de71f3twmUhqcn2dCNFDRm[] = {
/* columns rows colors chars-per-pixel */
"64 64 235 2 ",
"   c #B4662A",
".  c #B5672A",
"X  c #B7672B",
"o  c #B9682B",
"O  c #BB692C",
"+  c #BC6B2C",
"@  c #BD6C2D",
"#  c #BD6D2D",
"$  c #BE6D2E",
"%  c #BF6E2E",
"&  c #C06F2E",
"*  c #C2702F",
"=  c #C3712F",
"-  c #C4712F",
";  c #C2712F",
":  c #C1702E",
">  c #BB6B2C",
",  c #B8682C",
"<  c #B6672B",
"1  c #B5662B",
"2  c #B3652A",
"3  c #B4672B",
"4  c #B8692C",
"5  c #BC6C2D",
"6  c #C16F2E",
"7  c #C6722F",
"8  c #C77230",
"9  c #C87330",
"0  c #CA7430",
"q  c #CC7531",
"w  c #CF7631",
"e  c #D07732",
"r  c #CE7631",
"t  c #CB7531",
"y  c #C5712F",
"u  c #C26E2E",
"i  c #BE6C2D",
"p  c #B8682B",
"a  c #B7672A",
"s  c #B4672A",
"d  c #B3672A",
"f  c #B3662A",
"g  c #B6672A",
"h  c #B7682B",
"j  c #B9692B",
"k  c #BB6A2C",
"l  c #BE6D2D",
"z  c #C1702F",
"x  c #BD6D2E",
"c  c #B5672B",
"v  c #B96A2C",
"b  c #C97430",
"n  c #CB7530",
"m  c #CD7631",
"M  c #CE7731",
"N  c #CF7732",
"B  c #CA7531",
"V  c #C77330",
"C  c #C16E2E",
"Z  c #BD6C2C",
"A  c #BF6D2D",
"S  c #C06E2E",
"D  c #C16F2F",
"F  c #C2702E",
"G  c #BA6A2C",
"H  c #B6682B",
"J  c #BF6E2D",
"K  c #C5722F",
"L  c #CE7732",
"P  c #CD7632",
"I  c #C3702E",
"U  c #C06E2D",
"Y  c #BD6B2C",
"T  c #BA692C",
"R  c #BD6B2D",
"E  c #C06D2D",
"W  c #C3702F",
"Q  c #C47130",
"!  c #C57230",
"~  c #C4722F",
"^  c #BD6C2E",
"/  c #BB6B2D",
"(  c #B9692C",
")  c #C7732F",
"_  c #CA7530",
"`  c #D07832",
"'  c #D17832",
"]  c #CC7631",
"[  c #CA7431",
"{  c #C57130",
"}  c #BF6D2E",
"|  c #C26F2E",
" . c #C97431",
".. c #C87430",
"X. c #BE6C2E",
"o. c #BC6B2D",
"O. c #BA6A2D",
"+. c #B8692B",
"@. c #C67230",
"#. c #D37A33",
"$. c #D67C33",
"%. c #C26F2F",
"&. c #C97530",
"*. c #BB6A2D",
"=. c #C4702F",
"-. c #D17932",
";. c #D97D34",
":. c #D47A33",
">. c #CD7731",
",. c #C67330",
"<. c #B6682A",
"1. c #CB7630",
"2. c #BA6B2C",
"3. c #D27932",
"4. c #D77C33",
"5. c #D87D34",
"6. c #BF6E2F",
"7. c #C97531",
"8. c #BA6B2D",
"9. c #B5662A",
"0. c #D57B33",
"q. c #CF7731",
"w. c #C06E2F",
"e. c #BC6B2E",
"r. c #B6682C",
"t. c #BC6A2C",
"y. c #C7722F",
"u. c #C97330",
"i. c #B5682A",
"p. c #C3712E",
"a. c #BE6E2D",
"s. c #B86A2C",
"d. c #BC6A2D",
"f. c #C2712E",
"g. c #C6712F",
"h. c #BD6A2D",
"j. c #BF6C2D",
"k. c #C06D2E",
"l. c #B7692C",
"z. c #B2662A",
"x. c #BF6C2E",
"c. c #BA6A2B",
"v. c #C36F2F",
"b. c #B7672C",
"n. c #B4662B",
"m. c #B3662B",
"M. c #B8672B",
"N. c #B9682C",
"B. c #C6732F",
"V. c #C77430",
"C. c #B2652A",
"Z. c #BA692B",
"A. c #BE6B2D",
"S. c #C87431",
"D. c #B1652A",
"F. c #B7692A",
"G. c #B96A2B",
"H. c #C87331",
"J. c #B7682A",
"K. c #BB6A2B",
"L. c #B8682A",
"P. c #C8732F",
"I. c #C4702E",
"U. c #C47230",
"Y. c #B4652A",
"T. c #C9732F",
"R. c #C6722E",
"E. c #BE6D2C",
"W. c #C16F2D",
"Q. c #C4712E",
"!. c #C16E2D",
"~. c #CB7631",
"^. c #C36F2E",
"/. c #BE6C2C",
"(. c #B9682A",
"). c #B7692B",
"_. c #CA7631",
"`. c #BE6B2C",
"'. c #BB692B",
"]. c #BB6C2C",
"[. c #B86A2B",
"{. c #C06F2D",
"}. c #BC6C2C",
"|. c #C16D2D",
" X c #C5702E",
".X c #B5682B",
"XX c #C7712F",
"oX c #CB7430",
"OX c #CD7531",
"+X c #BC6D2D",
"@X c #BE6F2D",
"#X c #C67130",
"$X c #B96B2C",
"%X c #BB6C2D",
"&X c #B8692A",
"*X c #BF6F2D",
"=X c #BE6E2E",
"-X c #BD6E2D",
";X c #B96B2D",
":X c #C5702F",
">X c #C5712E",
",X c #BF6F2E",
"<X c #B96A2D",
"1X c #C06C2E",
"2X c #C0702E",
"3X c #B6692B",
"4X c #BB6D2C",
"5X c #B8672A",
"6X c #BD6E2E",
"7X c #BC6D2E",
"8X c #BA6C2D",
"9X c #C97331",
"0X c #C87230",
"qX c #BE6F2E",
"wX c #BB6D2D",
"eX c #BC6D2C",
"rX c #C77331",
"tX c #B76A2D",
"yX c #B6692C",
"uX c #C67231",
"iX c #BA6C2C",
"pX c #B4682B",
"aX c #B7682C",
"sX c #C27030",
"dX c #C37030",
"fX c #CC7632",
"gX c #CD7732",
"hX c #CC7532",
"jX c #CB7532",
"kX c #CE7832",
"lX c #CE7632",
"zX c #C06F2F",
"xX c #C47030",
"cX c #BF6D2C",
"vX c white",
/* pixels */
"    . X o O + @ # $ % & * = - - = ; : $ > , X X X X < 1 2 2 3 4 5 6 - 7 8 9 0 q w e e r t 9 y u i O p a . . s d f f f f f f f f ",
". . g h j k + @ l % & : * = - = = z & x k , X X X X < 1     c v # : - 7 9 b n m M N N m B V - C i O p a g . s d f f f f f f f f ",
"h h p j k + Z A S D z ; = - = = F 6 % @ G p X < < < < < c H 4 > J F K 9 0 q m L L L P t b 7 I U Y T p g . s s d f f f f f f f f ",
"G G k + R i E C W Q ! ! ~ = * z & % ^ / ( h < c c c < h 4 v > l 6 - ) _ M ` ' ` L ] [ 9 { W C i k 4 h g . s s s f f f f f f f f ",
"# # l l } S | y V  . ...! = D % X.o.O.( h g .       c +.> l & * - @. .L #.$.$.#.L  .@.- %.S i > j h g . . . . s   f f f f f f f ",
"& & & 6 D W y 9 n ] ] &.7 F % @ *.( , < c . s f f   < v @ 6 =.K 8 ..] -.$.;.;.:.>.,.* S $ @ *.( h <.. . . . . s   f f f s s s s ",
"* * * * W - K 9 _ ] 1...~ & # > ( p X < . s s d d s H 2.% = @.V 9 b m 3.4.;.5.#.t Q 6.^ o.k ( p h g . . . . . .       . c H H H ",
"= = = - ~ K 7 V b 7...! z x 8.4 h g 9.  f d d s s < , > } F y 7 9 b q e #.0.:.L ..z x / G j p X g . . s s s s . c < < h 4 v v v ",
"- - - - K K K K ! ! = & @ G +.<..     f f f   . g h ( + $ 6 W K V b n m q.N m b - S o.G , h < < H H H c s f   . < h j G > 5 # # ",
"- - - - - - - W %.w.} e.v r.c   f f f f f f   < p T t.R l % : - y.u.0 [ [  .V - C i > j H i.s . H h H c s   s < p T + @ l % & & ",
"= = = = p.F 6 & a.# / s.H s f f f f f f f s i.h T d.@ A % 6 f.K ) u.b u.8 g.=.C l > ( h c s   . < h h H . . i.h T h.j.k.C %.W W ",
"= = * * 6 S $ 5 / v l.H 3 d z.z.z.f f   1 < h T o.x.k.6 * = - 7 9 b u.y.y F S l + c.+.h . 9.9.. < h p h < < p T R k.u v.=.Q Q Q ",
"F F 6 U A Z > G +.h H c s f f f d d s . g h ( + X.C %.=.y 7 y.9 0 B b 8 W S @ > v +.h < . . . g < X X h p j k Z C I y @.@.@.@.@.",
"6 6 S l o.T , b.c n.m.m.f f f f d s . H p T t.j.C =.y 7 8 9 9 [ t t b @.%.X./ ( p a g g g g g g < X X M.N.O h.E W B.....V.,.,.,.",
"% % $ 5 G p < 1   2 C.C.z.f f   s . <.p Z.+ i S v.y @.9 u.0 0 n t t b y C R G +.h g . . . g g g < X M.o Z.k A.C =.,.S.S...V V V ",
"@ @ o.G p g   2 C.C.D.C.f     . . <.F.G.> i S v.{ 8 H. .[ t t q q t u.y k.o.( p < g . . . g g a h p p j T t.R E * K ,.V V V V V ",
"G G ( +.H .   2 C.D.C.z.f s . g g J.+.K.Z E | =.@.H. .B B t t q q t u.y E + j L.g g . g < X X X p p o j T t.Y A S * = ~ ! ,.,.,.",
"p p h < .   f z.C.C.2 f   . g J.L.j G Z A | - @.9  .B B B B B B t 0 P.I.A k j J.g . . g < X X p p j j Z.O t.Y i J & F = - U.! ! ",
"X X < < 9.  f f 2 2 Y.  9.g a p j k + A 6 - 7 V b 7.B  .b 9 9 9 T.P.R.| E.G +.<.g . . g < X X p p j Z.k t.R i } S D z ; ; = = = ",
"1 1 1 n.  f f f f   9.. < h o Z.t.Z A W.W K V S.B B [ b V K - - Q.I.| E + Z.p < g . . g < X X p p j c.t.Y j.!.| I.- - = : & % % ",
"        d d d s c < < h p Z.K.+ l % : = K V ..B ~.~._ V I.C E E E E j.+ c.F.<.g g g g a h p p p p j G Y E ^.y 8  . ...- & @ > G ",
"f f f f s s s . H h h +.( k + l U F Q.K V S. .B B B ..y 6 i + t.t.t.k Z.p a g g g g g a h p p p o Z.t./.W.Q.) _ ] m n y A G h < ",
"f f f   s . g g h p o T k R i S 6 = K ,...7.B B  .9 7 ^.A t.Z.j j j +.h <.g . . . g g a h p p j ( k R E I 7 b t P P t y l +..   ",
"f f f s . <.<.J.+.Z.K.t.A.x.C %.= U.,...7.B [ b V K I U /.k Z.(.L.J.J.<.. s s s s . . g X p j T t.@ A | =.8 u.t ] ] 0 I.@ ).s f ",
"f f   s c H h +.j K.+ /.} C %.- ! @.V S.B _._ V - C A `.t.'.j p J.g . s             9.g h +.c.+ l S F - 7 8 9 b 0 b 7 6 ].).s f ",
"f f   . H ).j c.k + /.E | =.y g.@.@.8 H. .7...y 6 i + K.K.Z.j p g 9.  f f f f f f f   . <.+.G Z S I - @.,.V V V V 7 I.J 2.H s f ",
"f f   . H +.c.t.Y A !.| =.{ @.! y - y 7 V V 7 ^.A k j j j j +.h .   f f f f f f f f s . <.[.> l 6 = ! ,.V V ,.7 - I {.}.G.H s f ",
"f f   . H +.K./.|.^. Xg.y.V @.K =.I | I - - F A + o a a X h H < s   f f f f f z.z.z.f c h v o.} * ~ ,.V V @.{ W 6 J @ 2.).i.s d ",
"d d s . <.+.k E I.P.0 0 b V @.=.| E j.j.E E j.+ j <.. . . . . s   f f f z.z.z.z.z.z.d .X).G @ S W K V V ,.K - 6 l > v +.H g . . ",
"s s . . <.+.+ !.XXoXOXq [ V y %.A R t.t.+ + k j h .             f f f f f f f f f f s H s./ # & = @.V V @.- F % + ( h g . . . . ",
". . g H h v @ | 9 q P q b 7 I U Z G j j j j +.h .   f f d s s s         c c c c c c H 4 2.+X@X: = { @.@.! = : l 2.h . . . . . . ",
"g g J.+.c.+ A I 9 t t  .#Xv.E Z c.+.J.J.J.J.<.. s   f   3 c c c . . g H +.s.v v s.s.$X%X# % 6 F W = - - = * & # v H s s s . . . ",
"g a p Z.+ A 6 y 9  .b 8 W k.R k j J.g g g g g .   f   s c H h h J.J.&XG.> 5 # # 5 5 # $ & D * * * * * * * : *X# G.h . . . . . . ",
"h p j + A 6 I.K 7 ,.K v.k.h.T p X g . . . . . s f f s < ).( G G j j c.}.l & : : & & 6 * W Q Q W * 6 & & & & J 5 G.H . . . . . . ",
"T O t.i C W - K K - F S Y T p g . s s s s s s s     . h T d.R R t.t.Y A C W - = W * W - { ! { - * & % =Xa.-X+X2.[.<.. . . . . . ",
"i i A C * Q U.- = | U Z c.h g . s s s s s s s s s . h G.R A C C E E !.| - ! ,.! ! Q Q { @.8 #X- * & =Xx +X%X;Xs.).<.. . . . . . ",
"C C | W - { { W 6 A R G p g 9.    s s s s s s s . g p t.E ^.:X:X XI.>X7 ) V ..V ,.! ! @.@.8 #X- * & $ 5 2.[.).H i.s s s s s s s ",
"- - - K @.@.y %.} o.T p < .     s s s s s s s . <.+.G E.| R.P.T.P.P.P.b b B 7. .9 8 @.@.@.@.{ = z ,Xx 8.4 H c 3 s s s s s s s s ",
"@.@.@.@.! - I S Z G +.<..   f f d s s s s . g h +.2.@ C y P.0 oX0 0 0 0 t t B  .9 8 @.@.@.! Q * & a.5 v H s f f f s s s s s s s ",
"@.@.@.y =.^.C i + j h < .   f f d s s . < h +.G + i C =.8 b t t t t t q ] ] t B ..V @.! y - W & $ %X<Xl..Xs f f d s s s s s s s ",
"@.@.{ W C A R k ( p < 1     f f s . . <.J.j G Z U I y V .. .B B B B B t ~.] t B ..V @.{ - * 6 $ ].s.).i.s f f f f f f f d d d d ",
"8 @.y v.k.R k T o M.< c     f f s . g h +.G R k.W 7 9  .B B B B B B B t ~.] t B ..V ! - * 6 =X%Xs.H 3 m.f f f f f f f f s s s s ",
"V @.- | A t.Z.o p X < c     f f   . g p T R 1Xv.#X..B B B B B B B B B t t t B  .9 @.U.; 2Xa.+X$X3Xs f f f f f f f f f s c H H H ",
"V @.- C i O o M.M.X < c     f f f s H j Y E ^.g.9 [ t t t B B B B B B B 0 b ..V 7 y W & a.4X$X).c f C.C.C.f f f f f s .X).4 v v ",
"V @.- C i O o a a g g . . s s d d s H 2.A I g.9 b B t t t B B B _ _ &.b 9 8 @.{ Q W 6 } ].v H . f f C.C.z.f f f f   . ).2.5 # l ",
"V @.- C i O o a a g g . . s s d d s ).> 6 y 9 [ B t t t B B B B 0 b ..V K - = * F 6 % @ v h c m.2 C.C.C.z.f f f   . h v 5 J & 6 ",
"K - I S R O o 5Xa g g . . s s s . H s.@ z @.S.B B t t B B 7.7. .b 9 8 { =.* D & ,Xa.# 2.).s f C.C.C.C.C.z.f f s . h ( / $ 6 * W ",
"^.| C A Y Z.o M.a g g . s s i.H ).$X5 =X* ~ V S.B B t t [  . .9 V 7 y = | & % l # ].2.[..Xd z.C.C.C.C.C.C.f s .X).v %X$ D W Q { ",
"i i R + k Z.p X g g . s s s i.).2.@ A & : ; ~ ,...[ t [ b 9 9 8 7 - W z ,X6X7X8X$X[.).H . s f C.C.C.C.C.2   . p G @ J 6 W Q ! ! ",
"t.t.k O Z.o p h g . . s s s H G.# {.F F : : f.K V [ B [ 9X0X@.y = F & qX-XwX8.s.l.3XH c s f f f f f f f   . h G.eX*XF = K ! @.@.",
"Z.Z.Z.j p h h H g . . . . H 4 / % F = = F F f.~ V  .7. .rX@.Q ; : *X# 5 8.;XtXyX.X. s d f f f   3 c c c < h ( > % : = ! ! @.@.@.",
"o o o p X < < 1 9.  s . <.+.2.# & = ! ! - = - ! V S.S.H.uX{ W D a.+XiX$Xs.l.yX.XpXd d f f   . c H l.s.v G > 5 J D - ! @.@.@.@.@.",
"p p p h g . .   f f s H [.2.+X% * y @.V V V V 9 9 9 V 8 ! - : =X].v ).H .X.X.XpXs d d f   9.g p v / 5 # $ % & * - { @.@.@.! ! ! ",
"X X X < 9.    2 C.C.  H $X+XJ : = ! 8 9  .7.B  .9 8 @.{ - W & x G aXc s s s s s s s s . < X p G @ % & F W - - y ! @.@.! y - - - ",
"< < < c   f f 2 C.2 1 +.+ J | =.y @.9 0 t q q t b V ! Q sXD =X%X4 c f z.f f f   s . . < X N.T o.} D W - ! ,.V ,.,.! ! - - I I I ",
"c c c 3   f f f z.f c s.5 & W y @.V b t ] P P t  .,.U.= z S # 2.).c f z.f f f s c H h 4 G o.i k.D dX! rX .[ [ b V K = * 6 C S S ",
"        f f f f f   < v # : - @.V S.B fXgXL L ] &.B.- F S l o.v h .   f f f   . H ).G.> i k.C W = ! ,.S.t hXjX .@.= D S l E.Z Z ",
"        f f f f   . h 2.=X; ! rXS.7.t ] L kXL ~...K W 6 A Z k j h <.. s s s . H ).v > l S W - y ! @.V [ q lXm [ @.* % # 5 > G G ",
"f f f f f f f   9.a o Y S - 8 H. .B t m gXL P B V - %.} R k ( p h g . . . . <.h ( *.@ S W { @.@.@.@.V  .q P ]  .U.zXx 5 2.c.j j ",
"f f f f f f     g J.Z./.6 K V  .B t t ] ] ] B 9 y | } @ k j p X a g g g g g h j > i S %.=.#X8 8 @.@.V b B t _ ,.; =X%X2.[.&XJ.J.",
"f f f f f f   9.g p k j.W 8  .B B B B B &...V - | A R k ( h < < < < < < < h 4 > X.C %.xX{ @.@.@.@.@.@.V ....B.= S @ 2.G.).J.<.<.",
"f f f f f f   . g +.> A - 9 B t t B B b ..B.K F U Z > j h i.s . < X X X X p T Y S I y @.@.@.@.@.@.@.@.@.@.7 Q.| cX+ G.&X<.g . . ",
"f f f f f f   . a j + E y u.t ~.t B 7...,.K = 6 l + T p < s     1 < X M.M.o O i C - @.@.@.@.@.@.@.@.@.@.! - I S Z G j J.<.. . . ",
"f f f f f f   . a j + E y u.t ~.t B 7...,.~ ; & # > ( h c s     1 < X M.M.o O i u y 8 8 8 @.@.@.@.@.@.! U.= F % Z G +.J.<.. . . "
};
