/* XPM */
static char *ac41056ec77b4aedad28fd85ae0641be2Sw69gYkk9ShhPhU[] = {
/* columns rows colors chars-per-pixel */
"64 64 48 1 ",
"  c #575657",
". c #585758",
"X c #5C5C5C",
"o c #5F605F",
"O c #605F60",
"+ c #646464",
"@ c #676967",
"# c #686768",
"$ c #6B6B6B",
"% c #6F706F",
"& c #706F70",
"* c #737373",
"= c #757575",
"- c #767876",
"; c #777977",
": c #787578",
"> c #787778",
", c #7B787B",
"< c #7B7B7B",
"1 c #7B7C7B",
"2 c #7D7E7D",
"3 c #7F807F",
"4 c #807D80",
"5 c #817F81",
"6 c #818181",
"7 c #828382",
"8 c #848384",
"9 c #858485",
"0 c #878587",
"q c #888688",
"w c #898989",
"e c #8B888B",
"r c #8B8A8B",
"t c #8E8B8E",
"y c #8F8E8F",
"u c #908C90",
"i c #908F90",
"p c #928F92",
"a c #939193",
"s c #949394",
"d c #959395",
"f c #979497",
"g c #9A969A",
"h c #9A989A",
"j c #9C999C",
"k c #9E9A9E",
"l c #9E9B9E",
"z c #A09CA0",
/* pixels */
"+++$*<6raglzzhgyq5>8ufglzlgzhlgdr59raglllhzlllhfayrrrqtttr8>$OX ",
"O+#$*<8raghllldt8,58ufzgglgllggir66ryfgllglhlggditrqtqrrtq8>$O. ",
"++#$*<6rydghgddr8>>5qpgzgglgzgdt8669yfhhgdgggggayrqrrtrrrq6>$OX ",
"+@#$=269riaaday8,*=<8uidffffddat9669tadfdaadfdaarrqqqrqtr96>$O. ",
"@@@%-1698rttyt82=&$=28tiiiiaiitq52,59yayirrtiiiyq99qrqrqq85>#O  ",
"@@%%-1266666662<&$$&>28qrrttyut852,59ry9q988qtqq98689rqrq5,&#OX ",
"%**=132222<<2<>*$$#$*2688tqrttq85,,5588866588qq8622589rq86,*#XX ",
"33333321<=*****$$$&*=<26688rqqq85,2<>22522689986<=><589965>&OOX ",
"ttt8862=*$$$#$$$&&*>>,25668qq9t982,>--=-3333686<=*&*<66885<$#OX.",
"ddyit5<>*##+###$&&>>,5566669qtqq85<<=%%--633632=$$#*>26662<*#X..",
"gddt82<*$$##$$$$&&*>,2225266qqq9662>=%**-1112<<*$+#$*<5562<&#XX.",
"iiu82<*&*&***===&&&*<25665669999852<<=$****===%$#++#*>,552=&+O..",
"888,*&$**,459q5<&##$*<66556656866622<<=*%$$$%$$#$++#&>,,,,*&#XX.",
"5>,**#$*<58uiiu5&#+#*<266252556652222<<=%$#@##++++#$&*>,,,*$+O..",
"5,,*$$$*<8qiddy8*#+$*=>2222252252255252=%#+++++++##$*:>><=*$+O..",
"886,**$*<58uiit8,*$$$*=>><2222522<22522**$##++++$#***::>>*&#OXX.",
"itq85>*>,558qqq85,>*&&$**<>225222,,2,55,>&&#+++#$*=<>>>:*&$++XX.",
"ffit85<<,,,25888885<&$#$*=><222<<<,,2222,**$#+##*<<<<>:**$$+oXX.",
"lgdiq8<,,>>>,228q88,*$#$&==<,2<<<<,,522,,>>&$$$&*<<=>***$$$$oX..",
"gfdiq55,>>,><<25886,*$$*==<<<><<,,525522,,>===******&&$$=$$#oXX.",
"dduu85,,>>>>><<<455,>&&:-21<--%355886622,<>,,2,>=&$##@+$&*&$+XXX",
"ttq95,<>>>>>>>><>,>>:*>>-31-%%%-58q8665,,<,2588,*$++OOO+$*&$+XX ",
"qq88<>**==>*=>-->*:::>>,6--3%%%-,888652<<>>,688>*#+XXXX+$&$$+X  ",
"8855,=********%%****:>>>---%%%%%<25522,>=*>,586<*#++XXX+#&$$+X X",
"54,<=*%%%%%%%%%%&*&*=>>>==*%%@%%*=-211<=***-125>%$+XXXXO+##+OXX.",
"><>*%%$%$%$%%%%%$$$*==>**$%%%@@%$*%*===*%%%%=<>=*%#+OXXXO++OOXX.",
":**&%$$@@@@@@@@@@@$%****$%@@@%@@$@$%*=**%@$%****%$$+OXXOO++OXX.X",
"&&$$@@@+@+o+++++@+$$$&$$@++++++++X+@#$$$$$@$#$$$#@++OXXXOOOOXXXX",
"###++++OoooXoo++++@+###++oooooXoXXO++###@+@####@@@++OOXXOOOOOOXO",
"#+#++#++ooXXXXXXo++@@#++ooXXXXXXXXXO+++@+++++@+@+++++++++++O+OO+",
"#$$$$###+++oXXX++@@#@+++XXX.X.XXXoO++###++++@#####$@$$$$#$$$$$$#",
">>>><><=**$#+oX+$%%$$$##+XXX.XXX++#$%*$$++++#***<-=<>>>,>><>>>><",
"qqqqq8q8985=$++#&>,,>&&##OXXX.OO#$*=<<>&#OO#&>,58qqqqqqqqqr8qqqq",
"dadadddddit2=##$>585>>*$#+OOXXO+$><6685*$OO$&48tidddaddaadadddid",
"dggfgfgglfa8=#@%,8q85,=&$#OOX.O#*<59q95=$OO$:5eiddfgghgggdgfhggg",
"aaaaaaadgdd9<$$*,8q882<*&#+OXXO#=58rq85>$OO#*4qeuiidddgdddddfgdg",
"rrrrutyyiit6=%$%<55862<=$$#+XXO$>6qq88,*$OO#&>588ttiidiiyyyyyaaa",
"6896686rttq5-%%%<266622=*$$+XXO$>5qq8<>&$+#$&:<5559qrrtr9969rrrt",
"66666669qq82-**=><<2221<*%++XXO$>5055,*&##$$*><555698tq852269qrr",
"6886868998862<====*<1232-*$@OXO#>,5,:&$$$$&*>>5566888882<==12696",
"9q9999998885652>****<222>>&#+XX#&,,>*$#$$&*>25889899965<*$%*1288",
"rqrqrqqq8658q96<*##**<22,:*#+OO#&*>*&###$=>,69qqqtq8962=*##*-266",
"qrrrrrq966669q9<$#$+*=<>>:&$OOO#&>,*$$#$*>,699rttrq862<*$$#%=255",
"q9999q9866689q6>$+++#***&$##OO+$:454=*&*>2589989q986<==*%$**<223",
"888888666656885*#+XO+#$$#+OOOO+&,qe85>=<55888889866<=&$$$*=><255",
"65666566522665<*#OXO++#++XOXX+$:0iit852580qq8656662>*$#%=<<22222",
"52626252255222<*$++++##+++OOO+#:qigie8668qqq8655652*$#+$*<256252",
"252525255522<->=***&**&&&$#+O+#:qdzdu56688886556682=$#@#*<252526",
"52525256552<-**->6855<>,,<*$#O#:qdddt86558655666896<&#+$*>,25525",
"26262526621<*%*18yiitq88885*#OO:5igdt65256652558qq6<*#+$&*,,2252",
"52255222222-**=3ridaiqqreq5*#OO&5iddr65225522268qq8<&#+#&*>,,222",
">2<222,,<====-13qiaattqqqq5*$OO&5uiyq62222522228qtq,&++#&*,,,2,2",
",2,,,2>>-**--269qtrrqq8855,&+OO&,tir8<2,2222,,56qq8,&+O#$:>,2,,2",
">>>>>>>**%%-6699886665555,>$+OO$,qq85<>,,552,,,68q8>$+O+$*>>>>>>",
"==>=>==*%%%=26996525522,,<*$OXO$>8882<=<<<<<>,=5885*#OXO$&*>>*>>",
"*=******%%*=12335,2,2,225,*&#OO#*<55<==**=<=>>><25<&#XXOO#$&&***",
"%%%%%%%%%*====<-<><,,,,22<>&#XX$*,,,>***%%=--=><--%$+X XOO+#$$**",
"%%@%%$%%*===**%*=>>><,,,22<&+OO+&*::*$$$%%%%====*%%@oXXXOOO+#$$$",
"@@@%@$$%*=**%$$%&*****:><>=&+OX+$&&&$$$+@$$%****%%@+XXXXX.XO+@$&",
"@@@@@@$$$$$$$@@#$&&*&&&&*&&#OXXXO$$$$++$@@#$$*$$@+@++XXXXXOO++@@",
"@+@++++#####@@@++$$#$#####++XXXXo++oooo+++@@##@@@@++oooXoooo++@@",
"+++++++++@@++++++++#+#+++XXXXX.XXXXXXXXoX+++@@++@+++++++++++++++",
"+++++++++++++++++++++++XXXXXX..XXX.X XXX+++++++++++++++++o++++O+",
"+o++++++++X+++++++X++++XX.  ..X.  ... XXXX+++++X++++++++++++o+++"
};
